<svg xmlns="http://www.w3.org/2000/svg" viewBox="0 0 800 200" font-family="ui-monospace, Menlo, monospace">
  <rect width="800" height="200" fill="#0b0e14"/>
  <text x="40" y="38" fill="#e8e4da" font-size="15" font-weight="600">edit firehose &#8594; windowed spikes &#8594; live dashboard</text>

  <!-- pipeline boxes -->
  <g font-size="11">
    <rect x="30"  y="82" width="108" height="38" rx="4" fill="none" stroke="#2a2f3a"/>
    <text x="84"  y="105" fill="#e8e4da" text-anchor="middle">EventStreams</text>
    <rect x="156" y="82" width="108" height="38" rx="4" fill="none" stroke="#2a2f3a"/>
    <text x="210" y="105" fill="#ffb454" text-anchor="middle">wiki.edits</text>
    <rect x="282" y="82" width="108" height="38" rx="4" fill="none" stroke="#2a2f3a"/>
    <text x="336" y="105" fill="#e8e4da" text-anchor="middle">Quix &#183; 60s</text>
    <rect x="408" y="82" width="108" height="38" rx="4" fill="none" stroke="#2a2f3a"/>
    <text x="462" y="105" fill="#ffb454" text-anchor="middle">wiki.metrics</text>
    <rect x="534" y="82" width="108" height="38" rx="4" fill="none" stroke="#2a2f3a"/>
    <text x="588" y="105" fill="#e8e4da" text-anchor="middle">DuckDB</text>
    <rect x="660" y="82" width="108" height="38" rx="4" fill="none" stroke="#2a2f3a"/>
    <text x="714" y="105" fill="#e8e4da" text-anchor="middle">Streamlit</text>
  </g>

  <!-- arrows -->
  <g stroke="#8f95a0" stroke-width="1.5">
    <line x1="138" y1="101" x2="153" y2="101"/>
    <line x1="264" y1="101" x2="279" y2="101"/>
    <line x1="390" y1="101" x2="405" y2="101"/>
    <line x1="516" y1="101" x2="531" y2="101"/>
    <line x1="642" y1="101" x2="657" y2="101"/>
  </g>
  <g fill="#8f95a0">
    <path d="M153 101 l-6 -3.5 v7 z"/><path d="M279 101 l-6 -3.5 v7 z"/><path d="M405 101 l-6 -3.5 v7 z"/>
    <path d="M531 101 l-6 -3.5 v7 z"/><path d="M657 101 l-6 -3.5 v7 z"/>
  </g>

  <!-- stage captions -->
  <g fill="#8f95a0" font-size="10">
    <text x="84"  y="140" text-anchor="middle">producer.py</text>
    <text x="336" y="140" text-anchor="middle">tumbling windows</text>
    <text x="588" y="140" text-anchor="middle">idempotent sink</text>
  </g>

  <text x="40" y="182" fill="#8f95a0" font-size="12">keyed by wiki &#183; watermark-based window close &#183; Redpanda in dev, Confluent in prod</text>
</svg>
